<mxfile host="drawio-plugin" modified="2021-05-04T18:51:43.189Z" agent="5.0 (X11; Linux x86_64) AppleWebKit/537.36 (KHTML, like Gecko) Chrome/87.0.4280.141 Safari/537.36" etag="z2ORaATpupkV4HPPwkml" version="13.7.9" type="embed"><diagram id="C5RBs43oDa-KdzZeNtuy" name="Page-1"><mxGraphModel dx="992" dy="709" grid="1" gridSize="10" guides="1" tooltips="1" connect="1" arrows="1" fold="1" page="1" pageScale="1" pageWidth="827" pageHeight="1169" background="#F4F1DE" math="0" shadow="0"><root><mxCell id="WIyWlLk6GJQsqaUBKTNV-0"/><mxCell id="WIyWlLk6GJQsqaUBKTNV-1" parent="WIyWlLk6GJQsqaUBKTNV-0"/><mxCell id="i1VqJMLmJF1E0mgOY-dX-4" value="&amp;lt;&amp;lt;Metaclass&amp;gt;&amp;gt;&lt;br&gt;&lt;b&gt;SingletonBaseClass&lt;/b&gt;" style="swimlane;fontStyle=2;align=center;verticalAlign=top;childLayout=stackLayout;horizontal=1;startSize=40;horizontalStack=0;resizeParent=1;resizeParentMax=0;resizeLast=0;collapsible=1;marginBottom=0;html=1;fillColor=#F2CC8F;strokeColor=#E07A5F;fontColor=#393C56;" parent="WIyWlLk6GJQsqaUBKTNV-1" vertex="1"><mxGeometry x="20" y="20" width="250" height="100" as="geometry"/></mxCell><mxCell id="i1VqJMLmJF1E0mgOY-dX-5" value="# instances: list" style="text;strokeColor=none;fillColor=none;align=left;verticalAlign=top;spacingLeft=4;spacingRight=4;overflow=hidden;rotatable=0;points=[[0,0.5],[1,0.5]];portConstraint=eastwest;fontColor=#393C56;" parent="i1VqJMLmJF1E0mgOY-dX-4" vertex="1"><mxGeometry y="40" width="250" height="30" as="geometry"/></mxCell><mxCell id="i1VqJMLmJF1E0mgOY-dX-6" value="# __call__(cls, *args, **kwargs): cls instance" style="text;fillColor=none;align=left;verticalAlign=top;spacingLeft=4;spacingRight=4;overflow=hidden;rotatable=0;points=[[0,0.5],[1,0.5]];portConstraint=eastwest;strokeColor=#E07A5F;fontColor=#393C56;" parent="i1VqJMLmJF1E0mgOY-dX-4" vertex="1"><mxGeometry y="70" width="250" height="30" as="geometry"/></mxCell><mxCell id="i1VqJMLmJF1E0mgOY-dX-7" value="&lt;span style=&quot;font-style: normal&quot;&gt;&lt;b&gt;CustomLogger&lt;/b&gt;&lt;/span&gt;" style="swimlane;fontStyle=2;align=center;verticalAlign=top;childLayout=stackLayout;horizontal=1;startSize=30;horizontalStack=0;resizeParent=1;resizeParentMax=0;resizeLast=0;collapsible=1;marginBottom=0;html=1;strokeColor=#E07A5F;fillColor=#F2CC8F;fontColor=#393C56;" parent="WIyWlLk6GJQsqaUBKTNV-1" vertex="1"><mxGeometry x="40" y="180" width="160" height="60" as="geometry"/></mxCell><mxCell id="i1VqJMLmJF1E0mgOY-dX-8" value="+ log()" style="text;strokeColor=none;fillColor=none;align=left;verticalAlign=top;spacingLeft=4;spacingRight=4;overflow=hidden;rotatable=0;points=[[0,0.5],[1,0.5]];portConstraint=eastwest;fontColor=#393C56;" parent="i1VqJMLmJF1E0mgOY-dX-7" vertex="1"><mxGeometry y="30" width="160" height="30" as="geometry"/></mxCell><mxCell id="i1VqJMLmJF1E0mgOY-dX-9" style="edgeStyle=orthogonalEdgeStyle;rounded=0;orthogonalLoop=1;jettySize=auto;html=1;exitX=0.5;exitY=0;exitDx=0;exitDy=0;entryX=1;entryY=0.25;entryDx=0;entryDy=0;endSize=11;startSize=11;endArrow=block;endFill=0;labelBackgroundColor=#F4F1DE;strokeColor=#E07A5F;fontColor=#393C56;" parent="WIyWlLk6GJQsqaUBKTNV-1" source="i1VqJMLmJF1E0mgOY-dX-7" target="i1VqJMLmJF1E0mgOY-dX-4" edge="1"><mxGeometry relative="1" as="geometry"><mxPoint x="60" y="475" as="sourcePoint"/><mxPoint x="140" y="370" as="targetPoint"/></mxGeometry></mxCell><mxCell id="i1VqJMLmJF1E0mgOY-dX-10" value="Inherit" style="edgeLabel;html=1;align=center;verticalAlign=middle;resizable=0;points=[];fontColor=#393C56;labelBackgroundColor=#F4F1DE;" parent="i1VqJMLmJF1E0mgOY-dX-9" vertex="1" connectable="0"><mxGeometry x="0.2408" y="-2" relative="1" as="geometry"><mxPoint as="offset"/></mxGeometry></mxCell><mxCell id="i1VqJMLmJF1E0mgOY-dX-11" value="Client" style="html=1;fontColor=#393C56;strokeColor=#E07A5F;fillColor=#F2CC8F;" parent="WIyWlLk6GJQsqaUBKTNV-1" vertex="1"><mxGeometry x="270" y="190" width="110" height="50" as="geometry"/></mxCell><mxCell id="i1VqJMLmJF1E0mgOY-dX-12" style="edgeStyle=orthogonalEdgeStyle;rounded=0;orthogonalLoop=1;jettySize=auto;html=1;exitX=0;exitY=0.5;exitDx=0;exitDy=0;endSize=11;startSize=11;endArrow=open;endFill=0;dashed=1;fontColor=#393C56;entryX=1;entryY=0.25;entryDx=0;entryDy=0;labelBackgroundColor=#F4F1DE;strokeColor=#E07A5F;" parent="WIyWlLk6GJQsqaUBKTNV-1" source="i1VqJMLmJF1E0mgOY-dX-11" target="i1VqJMLmJF1E0mgOY-dX-7" edge="1"><mxGeometry relative="1" as="geometry"><mxPoint x="429.20000000000005" y="220.04866666666658" as="sourcePoint"/><mxPoint x="400" y="308" as="targetPoint"/></mxGeometry></mxCell><mxCell id="i1VqJMLmJF1E0mgOY-dX-13" value="Uses" style="edgeLabel;html=1;align=center;verticalAlign=middle;resizable=0;points=[];fontColor=#393C56;labelBackgroundColor=#F4F1DE;" parent="i1VqJMLmJF1E0mgOY-dX-12" vertex="1" connectable="0"><mxGeometry x="0.2408" y="-2" relative="1" as="geometry"><mxPoint as="offset"/></mxGeometry></mxCell></root></mxGraphModel></diagram></mxfile>